# xmcd
#
# Track frame offsets: 
#        150
#        20322
#        42687
#        72525
#        87112
#        125490
#        140127
#        162325
#        189307
#        216455
#        233085
#        255425
#
# Disc length: 3698 seconds
#
# Revision: 2
# Processed by: cddbd v1.5.2PL0 Copyright (c) Steve Scherf et al.
# Submitted via: ExactAudioCopy v1.0b3
#
DISCID=af0e700c
DTITLE=Składanka - Czas wytchnienia - Odgłosy natury
DYEAR=2001
DGENRE=Sounds of Nature
TTITLE0=Poranek w lesie
TTITLE1=Świt
TTITLE2=Leśny strumyk w maju
TTITLE3=Brzask
TTITLE4=Deszcz w lesie
TTITLE5=Kos w Prowansji
TTITLE6=Strumyk w lesie
TTITLE7=Drozdy o zmierzchu
TTITLE8=Słowiki
TTITLE9=Ujście rzeki
TTITLE10=Muzyka morza
TTITLE11=Magiczne pieśni wielorybów
EXTD=Reader?s Digest
EXTT0=
EXTT1=
EXTT2=
EXTT3=
EXTT4=
EXTT5=
EXTT6=
EXTT7=
EXTT8=
EXTT9=
EXTT10=
EXTT11=
PLAYORDER=
